<?xml version="1.0" encoding="UTF-8" standalone="no"?>
<!DOCTYPE svg PUBLIC "-//W3C//DTD SVG 1.1//EN" "http://www.w3.org/Graphics/SVG/1.1/DTD/svg11.dtd">
<svg width="100%" height="100%" viewBox="0 0 841 138" version="1.1" xmlns="http://www.w3.org/2000/svg" xmlns:xlink="http://www.w3.org/1999/xlink" xml:space="preserve" xmlns:serif="http://www.serif.com/" style="fill-rule:evenodd;clip-rule:evenodd;stroke-linejoin:round;stroke-miterlimit:2;">
    <g transform="matrix(1,0,0,1,-3196.151167,-945.867883)">
        <g transform="matrix(1.500376,0,0,0.663686,3122.514048,872.230764)">
            <g id="text" transform="matrix(2.119857,0,0,4.426218,-1029.080858,-431.024448)">
                <g transform="matrix(45.664868,0,0,49.4417,611.7539,168.551628)">
                    <path d="M0.404,-0.495L0.279,-0.215L0.154,-0.495L0.012,-0.495L0.257,0.012L0.302,0.012L0.547,-0.495L0.404,-0.495Z" style="fill:white;fill-rule:nonzero;"/>
                </g>
                <g transform="matrix(45.664868,0,0,49.4417,635.453966,168.551628)">
                    <path d="M0.134,-0.592C0.182,-0.592 0.221,-0.628 0.221,-0.675C0.221,-0.723 0.182,-0.759 0.134,-0.759C0.086,-0.759 0.048,-0.723 0.048,-0.675C0.048,-0.628 0.086,-0.592 0.134,-0.592ZM0.067,-0L0.202,-0L0.202,-0.495L0.067,-0.495L0.067,-0Z" style="fill:white;fill-rule:nonzero;"/>
                </g>
                <g transform="matrix(45.664868,0,0,49.4417,645.454573,168.551628)">
                    <path d="M0.531,-0.276C0.531,-0.404 0.437,-0.506 0.298,-0.506C0.152,-0.506 0.039,-0.393 0.039,-0.247C0.039,-0.101 0.153,0.012 0.31,0.012C0.386,0.012 0.452,-0.015 0.508,-0.062L0.452,-0.154C0.412,-0.123 0.368,-0.104 0.314,-0.104C0.242,-0.104 0.191,-0.139 0.175,-0.202L0.522,-0.202C0.526,-0.219 0.531,-0.248 0.531,-0.276ZM0.293,-0.397C0.35,-0.397 0.399,-0.36 0.4,-0.297L0.175,-0.297C0.19,-0.359 0.236,-0.397 0.293,-0.397Z" style="fill:white;fill-rule:nonzero;"/>
                </g>
                <g transform="matrix(45.664868,0,0,49.4417,669.611288,168.551628)">
                    <rect x="0.067" y="-0.75" width="0.135" height="0.75" style="fill:white;fill-rule:nonzero;"/>
                </g>
                <g transform="matrix(45.664868,0,0,49.4417,679.611894,168.551628)">
                    <path d="M0.35,-0.506C0.288,-0.506 0.237,-0.485 0.202,-0.447L0.202,-0.75L0.067,-0.75L0.067,-0L0.191,-0L0.191,-0.061C0.225,-0.015 0.282,0.012 0.35,0.012C0.49,0.012 0.59,-0.098 0.59,-0.247C0.59,-0.396 0.49,-0.506 0.35,-0.506ZM0.325,-0.111C0.263,-0.111 0.2,-0.152 0.2,-0.247C0.2,-0.341 0.262,-0.384 0.325,-0.384C0.395,-0.384 0.453,-0.332 0.453,-0.248C0.453,-0.164 0.396,-0.111 0.325,-0.111Z" style="fill:white;fill-rule:nonzero;"/>
                </g>
                <g transform="matrix(45.664868,0,0,49.4417,706.051852,168.551628)">
                    <path d="M0.291,0.012C0.42,0.012 0.518,-0.078 0.518,-0.218L0.518,-0.495L0.383,-0.495L0.383,-0.207C0.383,-0.149 0.342,-0.112 0.291,-0.112C0.238,-0.112 0.197,-0.149 0.197,-0.207L0.197,-0.495L0.062,-0.495L0.062,-0.218C0.062,-0.078 0.16,0.012 0.291,0.012Z" style="fill:white;fill-rule:nonzero;"/>
                </g>
                <g transform="matrix(45.664868,0,0,49.4417,730.254232,168.551628)">
                    <path d="M0.336,-0.506C0.275,-0.506 0.225,-0.484 0.191,-0.45L0.191,-0.495L0.067,-0.495L0.067,-0L0.202,-0L0.202,-0.289C0.202,-0.346 0.241,-0.385 0.296,-0.385C0.351,-0.385 0.388,-0.346 0.388,-0.289L0.388,-0L0.522,-0L0.522,-0.307C0.522,-0.426 0.452,-0.506 0.336,-0.506Z" style="fill:white;fill-rule:nonzero;"/>
                </g>
                <g transform="matrix(45.664868,0,0,49.4417,755.141585,168.551628)">
                    <path d="M0.321,-0.109C0.259,-0.109 0.229,-0.129 0.229,-0.186L0.229,-0.381L0.369,-0.381L0.369,-0.495L0.229,-0.495L0.229,-0.62L0.094,-0.62L0.094,-0.495L0.016,-0.495L0.016,-0.381L0.094,-0.381L0.094,-0.174C0.094,-0.047 0.17,0.012 0.292,0.012C0.327,0.012 0.357,0.007 0.385,-0L0.385,-0.113C0.359,-0.111 0.337,-0.109 0.321,-0.109Z" style="fill:white;fill-rule:nonzero;"/>
                </g>
            </g>
        </g>
        <g transform="matrix(1.500376,0,0,0.663686,3122.514048,872.230764)">
            <g id="rainbow" transform="matrix(0.6665,0,0,1.506737,-142.081343,-41.412472)">
                <g id="Purple" transform="matrix(1.386102,0,0,1.386102,542.493836,201.828884)">
                    <path d="M0,-5.832C0,-14.223 -6.685,-21.029 -14.925,-21.029C-23.168,-21.029 -29.852,-14.223 -29.852,-5.832L-29.852,26.791L0,26.791L0,-5.832Z" style="fill:white;fill-rule:nonzero;"/>
                </g>
                <g id="Blue" transform="matrix(1.386102,0,0,1.386102,488.855225,199.267897)">
                    <path d="M0,-29.63C0,-38.023 -6.686,-44.829 -14.926,-44.829C-23.17,-44.829 -29.853,-38.023 -29.853,-29.63L-29.853,28.639L0,28.639L0,-29.63Z" style="fill:white;fill-rule:nonzero;"/>
                </g>
                <g id="Green" transform="matrix(1.386102,0,0,1.386102,435.407268,196.756314)">
                    <path d="M0,-53.796C0,-62.189 -6.684,-68.995 -14.925,-68.995C-23.166,-68.995 -29.851,-62.189 -29.851,-53.796L-29.851,30.451L0,30.451L0,-53.796Z" style="fill:white;fill-rule:nonzero;"/>
                </g>
                <g id="Yellow" transform="matrix(1.386102,0,0,1.386102,381.830496,199.267897)">
                    <path d="M0,-29.63C0,-38.023 -6.686,-44.829 -14.926,-44.829C-23.17,-44.829 -29.853,-38.023 -29.853,-29.63L-29.853,28.639L0,28.639L0,-29.63Z" style="fill:white;fill-rule:nonzero;"/>
                </g>
                <g id="Red" transform="matrix(1.386102,0,0,1.386102,328.190498,201.828884)">
                    <path d="M0,-5.832C0,-14.223 -6.685,-21.029 -14.925,-21.029C-23.168,-21.029 -29.852,-14.223 -29.852,-5.832L-29.852,26.791L0,26.791L0,-5.832Z" style="fill:white;fill-rule:nonzero;"/>
                </g>
            </g>
        </g>
    </g>
</svg>
